<svg width="395" height="278" viewBox="0 0 395 278" fill="none" xmlns="http://www.w3.org/2000/svg">
<g clip-path="url(#clip0_146_48)">
<path d="M-558.825 168.321C-577.889 131.867 -592.788 75.597 -601.213 8.23834C-609.637 -59.1203 -611.115 -133.803 -605.417 -204.227C-599.72 -274.651 -587.165 -336.881 -569.701 -381.265C-552.236 -425.649 -530.838 -449.706 -508.825 -449.706C-486.811 -449.706 -465.413 -425.649 -447.949 -381.265C-430.484 -336.881 -417.93 -274.651 -412.232 -204.227C-406.535 -133.803 -408.013 -59.1203 -416.437 8.23834C-424.861 75.597 -439.76 131.867 -458.825 168.321C-477.889 198.039 -492.788 243.912 -501.213 298.824C-509.637 353.735 -511.115 414.618 -505.417 472.029C-499.72 529.44 -487.165 580.171 -469.701 616.353C-452.236 652.536 -430.838 672.148 -408.825 672.148C-386.811 672.148 -365.413 652.536 -347.949 616.353C-330.484 580.171 -317.93 529.44 -312.232 472.029C-306.535 414.618 -308.013 353.735 -316.437 298.824C-324.861 243.912 -339.76 198.039 -358.825 168.321C-377.889 138.603 -392.788 92.7308 -401.213 37.8189C-409.637 -17.093 -411.115 -77.9758 -405.417 -135.387C-399.72 -192.798 -387.165 -243.529 -369.701 -279.711C-352.236 -315.894 -330.838 -335.506 -308.825 -335.506C-286.811 -335.506 -265.413 -315.894 -247.949 -279.711C-230.484 -243.529 -217.93 -192.798 -212.232 -135.387C-206.535 -77.9758 -208.013 -17.093 -216.437 37.8189C-224.861 92.7308 -239.76 138.603 -258.825 168.321C-277.889 200.021 -292.788 248.951 -301.213 307.524C-309.637 366.096 -311.115 431.038 -305.417 492.276C-299.72 553.515 -287.165 607.628 -269.701 646.222C-252.236 684.817 -230.838 705.737 -208.825 705.737C-186.811 705.737 -165.413 684.817 -147.949 646.222C-130.484 607.628 -117.93 553.515 -112.232 492.276C-106.535 431.038 -108.013 366.096 -116.437 307.524C-124.861 248.951 -139.76 200.021 -158.825 168.321C-177.889 136.622 -192.788 87.6915 -201.213 29.1187C-209.637 -29.454 -211.115 -94.3956 -205.417 -155.634C-199.72 -216.872 -187.165 -270.985 -169.701 -309.58C-152.236 -348.175 -130.838 -369.094 -108.825 -369.094C-86.8113 -369.094 -65.413 -348.175 -47.9485 -309.58C-30.4841 -270.985 -17.9295 -216.872 -12.2321 -155.634C-6.53456 -94.3956 -8.01253 -29.454 -16.4367 29.1187C-24.8609 87.6915 -39.7605 136.622 -58.8246 168.321C-77.8888 206.955 -92.7884 266.589 -101.213 337.974C-109.637 409.36 -111.115 488.507 -105.417 563.142C-99.7198 637.776 -87.1652 703.726 -69.7008 750.763C-52.2364 797.8 -30.8381 823.296 -8.82465 823.296C13.1888 823.296 34.5871 797.8 52.0515 750.763C69.5159 703.726 82.0705 637.776 87.7679 563.142C93.4654 488.507 91.9875 409.36 83.5633 337.974C75.1391 266.589 60.2395 206.955 41.1754 168.321C22.1112 129.688 7.21159 70.0537 -1.21259 -1.33182C-9.63676 -72.7173 -11.1147 -151.865 -5.41724 -226.499C0.280257 -301.134 12.8348 -367.084 30.2992 -414.121C47.7636 -461.158 69.1619 -486.654 91.1754 -486.654C113.189 -486.654 134.587 -461.158 152.052 -414.121C169.516 -367.084 182.07 -301.134 187.768 -226.499C193.465 -151.865 191.987 -72.7173 183.563 -1.33182C175.139 70.0537 160.24 129.688 141.175 168.321C122.111 194.077 107.212 233.833 98.7874 281.423C90.3632 329.014 88.8853 381.779 94.5828 431.535C100.28 481.291 112.835 525.258 130.299 556.616C147.764 587.974 169.162 604.971 191.175 604.971C213.189 604.971 234.587 587.974 252.052 556.616C269.516 525.258 282.07 481.291 287.768 431.535C293.465 381.779 291.987 329.014 283.563 281.423C275.139 233.833 260.24 194.077 241.175 168.321C222.111 142.565 207.212 102.81 198.787 55.2192C190.363 7.62887 188.885 -45.1362 194.583 -94.8924C200.28 -144.649 212.835 -188.615 230.299 -219.973C247.764 -251.332 269.162 -268.329 291.175 -268.329C313.189 -268.329 334.587 -251.332 352.052 -219.973C369.516 -188.615 382.07 -144.649 387.768 -94.8924C393.465 -45.1362 391.987 7.62887 383.563 55.2192C375.139 102.81 360.24 142.565 341.175 168.321C322.111 193.879 307.212 233.329 298.787 280.553C290.363 327.777 288.885 380.137 294.583 429.51C300.28 478.884 312.835 522.512 330.299 553.629C347.764 584.746 369.162 601.612 391.175 601.612C413.189 601.612 434.587 584.746 452.052 553.629C469.516 522.512 482.07 478.884 487.768 429.51C493.465 380.137 491.987 327.777 483.563 280.553C475.139 233.329 460.239 193.879 441.175 168.321" stroke="#B1B9D8" stroke-opacity="0.08" stroke-width="2"/>
</g>
<defs>
<clipPath id="clip0_146_48">
<rect width="395" height="278" fill="white"/>
</clipPath>
</defs>
</svg>
