<svg width="395" height="278" viewBox="0 0 395 278" fill="none" xmlns="http://www.w3.org/2000/svg">
<g clip-path="url(#clip0_146_48)">
<path d="M-72 291.89H-53.9483L177.913 -51.3086H167.082L-64.7793 291.89H-46.7276L53.7752 143.127H42.9442L-57.5586 291.89H-39.5069L56.1471 150.304H45.316L-50.3379 291.89H-32.2862L323 -234H312.169L-43.1172 291.89H-25.0655L88.6613 123.553H77.8303L-35.8965 291.89" stroke="#808FBE" stroke-opacity="0.2" stroke-width="2"/>
<path d="M66 540.89H84.0517L315.913 197.691H305.082L73.2207 540.89H91.2724L191.775 392.127H180.944L80.4414 540.89H98.4931L194.147 399.304H183.316L87.6621 540.89H105.714L461 15H450.169L94.8828 540.89H112.934L226.661 372.553H215.83L102.103 540.89" stroke="#808FBE" stroke-opacity="0.2" stroke-width="2"/>
</g>
<defs>
<clipPath id="clip0_146_48">
<rect width="395" height="278" fill="white"/>
</clipPath>
</defs>
</svg>
